<svg xmlns="http://www.w3.org/2000/svg" viewBox="0 0 512 512">
  <rect width="512" height="512" fill="#2563eb"/>
  <g transform="translate(230,290) scale(1.8)">
    <!-- Hokkaido -->
    <ellipse cx="76" cy="-102" rx="14" ry="12" fill="white" transform="rotate(-15,76,-102)"/>
    <!-- Honshu - thin stroked arc -->
    <path d="M72,-82
             Q80,-70 80,-56
             Q80,-42 74,-28
             Q66,-12 54,2
             Q42,12 28,20
             Q14,26 0,28
             Q-10,28 -14,22"
          fill="none" stroke="white" stroke-width="9" stroke-linecap="round" stroke-linejoin="round"/>
    <!-- Shikoku -->
    <ellipse cx="4" cy="36" rx="7" ry="5" fill="white"/>
    <!-- Kyushu -->
    <path d="M-16,26 L-10,22 L-4,26 L-4,34 L-8,42 L-14,48
             L-20,50 L-26,48 L-28,42 L-26,34 L-22,28 Z"
          fill="white" stroke="white" stroke-width="0.5" stroke-linejoin="round"/>
    <!-- Okinawa -->
    <circle cx="-38" cy="66" r="2.5" fill="white"/>
    <circle cx="-42" cy="74" r="2" fill="white"/>
    <circle cx="-45" cy="80" r="1.6" fill="white"/>
  </g>
  <!-- Pin marker -->
  <g transform="translate(340,175)">
    <circle cx="0" cy="0" r="11" fill="#ef4444" stroke="white" stroke-width="2"/>
    <circle cx="0" cy="0" r="4" fill="white"/>
  </g>
</svg>
