<svg xmlns="http://www.w3.org/2000/svg" viewBox="0 0 512 512">
  <rect width="512" height="512" rx="80" fill="#2563eb"/>
  <!-- Japan silhouette - simplified but recognizable -->
  <g transform="translate(256,248) scale(1.8)" fill="white" stroke="white" stroke-width="1" stroke-linejoin="round">
    <!-- Hokkaido -->
    <path d="M55,-120 Q65,-130 78,-128 Q88,-122 90,-110 Q88,-98 80,-92 Q72,-88 62,-90 Q55,-95 50,-105 Q48,-112 55,-120 Z"/>
    <!-- Honshu main body -->
    <path d="M68,-82 Q78,-86 85,-78 Q90,-68 88,-55 Q85,-42 80,-30 Q75,-18 70,-5 Q65,8 58,20 Q50,32 42,42 Q35,50 25,55 Q15,58 5,55 Q-5,50 -12,42 Q-18,32 -20,22 Q-22,12 -18,2 Q-15,-8 -8,-18 Q0,-28 10,-38 Q20,-48 30,-55 Q40,-62 50,-68 Q58,-75 68,-82 Z"/>
    <!-- Shikoku -->
    <path d="M-5,52 Q5,48 12,52 Q18,58 15,65 Q10,70 2,70 Q-5,68 -8,62 Q-8,56 -5,52 Z"/>
    <!-- Kyushu -->
    <path d="M-22,50 Q-12,45 -6,50 Q-2,58 -5,68 Q-10,78 -18,82 Q-28,82 -32,74 Q-34,65 -30,58 Q-26,52 -22,50 Z"/>
    <!-- Okinawa dots -->
    <circle cx="-50" cy="100" r="3"/>
    <circle cx="-55" cy="110" r="2.5"/>
    <circle cx="-58" cy="118" r="2"/>
  </g>
  <!-- Pin marker -->
  <g transform="translate(320,155)">
    <circle cx="0" cy="0" r="16" fill="#ef4444" stroke="white" stroke-width="3"/>
    <circle cx="0" cy="0" r="6" fill="white"/>
  </g>
</svg>
