<svg xmlns="http://www.w3.org/2000/svg" viewBox="0 0 512 512">
<rect width="512" height="512" rx="64" fill="#2563eb"/>
<g transform="translate(256,256)" fill="white">
<path d="M60,-180 Q80,-190 95,-175 Q105,-160 100,-145 Q90,-130 75,-125 Q60,-120 50,-130 Q40,-145 45,-160 Q50,-175 60,-180 Z"/>
<path d="M70,-115 Q85,-120 95,-110 Q105,-95 100,-75 Q95,-55 85,-35 Q75,-15 65,10 Q55,30 40,50 Q30,65 15,80 Q5,90 -10,95 Q-25,100 -40,90 Q-50,80 -55,65 Q-60,50 -50,35 Q-40,20 -35,5 Q-30,-10 -25,-25 Q-20,-40 -10,-55 Q0,-70 15,-80 Q30,-90 45,-100 Q55,-108 70,-115 Z"/>
<path d="M-55,70 Q-40,62 -28,70 Q-20,80 -28,90 Q-38,98 -52,95 Q-62,88 -60,78 Q-58,72 -55,70 Z"/>
<path d="M-70,85 Q-55,78 -48,88 Q-42,100 -48,115 Q-55,130 -68,135 Q-82,135 -88,122 Q-92,110 -85,98 Q-78,88 -70,85 Z"/>
<circle cx="-100" cy="160" r="5"/>
<circle cx="-110" cy="175" r="4"/>
<circle cx="-118" cy="190" r="3"/>
</g>
</svg>